<mxfile host="app.diagrams.net" modified="2024-01-07T19:50:02.309Z" agent="Mozilla/5.0 (X11; Linux x86_64) AppleWebKit/537.36 (KHTML, like Gecko) Chrome/120.0.0.0 Safari/537.36" etag="41cPsmcR38IUuEblG_mF" version="22.1.17" type="device">
  <diagram id="R2lEEEUBdFMjLlhIrx00" name="Page-1">
    <mxGraphModel dx="1434" dy="1879" grid="1" gridSize="10" guides="1" tooltips="1" connect="1" arrows="1" fold="1" page="1" pageScale="1" pageWidth="850" pageHeight="1100" math="0" shadow="0" extFonts="Permanent Marker^https://fonts.googleapis.com/css?family=Permanent+Marker">
      <root>
        <mxCell id="0" />
        <mxCell id="1" parent="0" />
        <mxCell id="C-vyLk0tnHw3VtMMgP7b-2" value="Profile" style="shape=table;startSize=30;container=1;collapsible=1;childLayout=tableLayout;fixedRows=1;rowLines=0;fontStyle=1;align=center;resizeLast=1;fillColor=#fff2cc;strokeColor=#d6b656;" parent="1" vertex="1">
          <mxGeometry x="560" y="60" width="250" height="300" as="geometry" />
        </mxCell>
        <mxCell id="C-vyLk0tnHw3VtMMgP7b-3" value="" style="shape=partialRectangle;collapsible=0;dropTarget=0;pointerEvents=0;fillColor=#fff2cc;points=[[0,0.5],[1,0.5]];portConstraint=eastwest;top=0;left=0;right=0;bottom=1;strokeColor=#d6b656;" parent="C-vyLk0tnHw3VtMMgP7b-2" vertex="1">
          <mxGeometry y="30" width="250" height="30" as="geometry" />
        </mxCell>
        <mxCell id="C-vyLk0tnHw3VtMMgP7b-4" value="PK" style="shape=partialRectangle;overflow=hidden;connectable=0;fillColor=#fff2cc;top=0;left=0;bottom=0;right=0;fontStyle=1;strokeColor=#d6b656;" parent="C-vyLk0tnHw3VtMMgP7b-3" vertex="1">
          <mxGeometry width="30" height="30" as="geometry">
            <mxRectangle width="30" height="30" as="alternateBounds" />
          </mxGeometry>
        </mxCell>
        <mxCell id="C-vyLk0tnHw3VtMMgP7b-5" value="profileId" style="shape=partialRectangle;overflow=hidden;connectable=0;fillColor=#fff2cc;top=0;left=0;bottom=0;right=0;align=center;spacingLeft=6;fontStyle=5;strokeColor=#d6b656;" parent="C-vyLk0tnHw3VtMMgP7b-3" vertex="1">
          <mxGeometry x="30" width="220" height="30" as="geometry">
            <mxRectangle width="220" height="30" as="alternateBounds" />
          </mxGeometry>
        </mxCell>
        <mxCell id="C-vyLk0tnHw3VtMMgP7b-6" value="" style="shape=partialRectangle;collapsible=0;dropTarget=0;pointerEvents=0;fillColor=#fff2cc;points=[[0,0.5],[1,0.5]];portConstraint=eastwest;top=0;left=0;right=0;bottom=0;strokeColor=#d6b656;" parent="C-vyLk0tnHw3VtMMgP7b-2" vertex="1">
          <mxGeometry y="60" width="250" height="30" as="geometry" />
        </mxCell>
        <mxCell id="C-vyLk0tnHw3VtMMgP7b-7" value="FK1" style="shape=partialRectangle;overflow=hidden;connectable=0;fillColor=#fff2cc;top=0;left=0;bottom=0;right=0;strokeColor=#d6b656;" parent="C-vyLk0tnHw3VtMMgP7b-6" vertex="1">
          <mxGeometry width="30" height="30" as="geometry">
            <mxRectangle width="30" height="30" as="alternateBounds" />
          </mxGeometry>
        </mxCell>
        <mxCell id="C-vyLk0tnHw3VtMMgP7b-8" value="userId ---&gt; Auth" style="shape=partialRectangle;overflow=hidden;connectable=0;fillColor=#fff2cc;top=0;left=0;bottom=0;right=0;align=center;spacingLeft=6;strokeColor=#d6b656;" parent="C-vyLk0tnHw3VtMMgP7b-6" vertex="1">
          <mxGeometry x="30" width="220" height="30" as="geometry">
            <mxRectangle width="220" height="30" as="alternateBounds" />
          </mxGeometry>
        </mxCell>
        <mxCell id="C-vyLk0tnHw3VtMMgP7b-9" value="" style="shape=partialRectangle;collapsible=0;dropTarget=0;pointerEvents=0;fillColor=#fff2cc;points=[[0,0.5],[1,0.5]];portConstraint=eastwest;top=0;left=0;right=0;bottom=0;strokeColor=#d6b656;" parent="C-vyLk0tnHw3VtMMgP7b-2" vertex="1">
          <mxGeometry y="90" width="250" height="30" as="geometry" />
        </mxCell>
        <mxCell id="C-vyLk0tnHw3VtMMgP7b-10" value="str" style="shape=partialRectangle;overflow=hidden;connectable=0;fillColor=#fff2cc;top=0;left=0;bottom=0;right=0;strokeColor=#d6b656;" parent="C-vyLk0tnHw3VtMMgP7b-9" vertex="1">
          <mxGeometry width="30" height="30" as="geometry">
            <mxRectangle width="30" height="30" as="alternateBounds" />
          </mxGeometry>
        </mxCell>
        <mxCell id="C-vyLk0tnHw3VtMMgP7b-11" value="firstName" style="shape=partialRectangle;overflow=hidden;connectable=0;fillColor=#fff2cc;top=0;left=0;bottom=0;right=0;align=center;spacingLeft=6;strokeColor=#d6b656;" parent="C-vyLk0tnHw3VtMMgP7b-9" vertex="1">
          <mxGeometry x="30" width="220" height="30" as="geometry">
            <mxRectangle width="220" height="30" as="alternateBounds" />
          </mxGeometry>
        </mxCell>
        <mxCell id="ztNr5zMi71Uj7PbcgTAJ-25" value="" style="shape=partialRectangle;collapsible=0;dropTarget=0;pointerEvents=0;fillColor=#fff2cc;points=[[0,0.5],[1,0.5]];portConstraint=eastwest;top=0;left=0;right=0;bottom=0;strokeColor=#d6b656;" parent="C-vyLk0tnHw3VtMMgP7b-2" vertex="1">
          <mxGeometry y="120" width="250" height="30" as="geometry" />
        </mxCell>
        <mxCell id="ztNr5zMi71Uj7PbcgTAJ-26" value="str" style="shape=partialRectangle;overflow=hidden;connectable=0;fillColor=#fff2cc;top=0;left=0;bottom=0;right=0;strokeColor=#d6b656;" parent="ztNr5zMi71Uj7PbcgTAJ-25" vertex="1">
          <mxGeometry width="30" height="30" as="geometry">
            <mxRectangle width="30" height="30" as="alternateBounds" />
          </mxGeometry>
        </mxCell>
        <mxCell id="ztNr5zMi71Uj7PbcgTAJ-27" value="lastName" style="shape=partialRectangle;overflow=hidden;connectable=0;fillColor=#fff2cc;top=0;left=0;bottom=0;right=0;align=center;spacingLeft=6;strokeColor=#d6b656;" parent="ztNr5zMi71Uj7PbcgTAJ-25" vertex="1">
          <mxGeometry x="30" width="220" height="30" as="geometry">
            <mxRectangle width="220" height="30" as="alternateBounds" />
          </mxGeometry>
        </mxCell>
        <mxCell id="ztNr5zMi71Uj7PbcgTAJ-28" value="" style="shape=partialRectangle;collapsible=0;dropTarget=0;pointerEvents=0;fillColor=#fff2cc;points=[[0,0.5],[1,0.5]];portConstraint=eastwest;top=0;left=0;right=0;bottom=0;strokeColor=#d6b656;" parent="C-vyLk0tnHw3VtMMgP7b-2" vertex="1">
          <mxGeometry y="150" width="250" height="30" as="geometry" />
        </mxCell>
        <mxCell id="ztNr5zMi71Uj7PbcgTAJ-29" value="int" style="shape=partialRectangle;overflow=hidden;connectable=0;fillColor=#fff2cc;top=0;left=0;bottom=0;right=0;strokeColor=#d6b656;" parent="ztNr5zMi71Uj7PbcgTAJ-28" vertex="1">
          <mxGeometry width="30" height="30" as="geometry">
            <mxRectangle width="30" height="30" as="alternateBounds" />
          </mxGeometry>
        </mxCell>
        <mxCell id="ztNr5zMi71Uj7PbcgTAJ-30" value="phone" style="shape=partialRectangle;overflow=hidden;connectable=0;fillColor=#fff2cc;top=0;left=0;bottom=0;right=0;align=center;spacingLeft=6;strokeColor=#d6b656;" parent="ztNr5zMi71Uj7PbcgTAJ-28" vertex="1">
          <mxGeometry x="30" width="220" height="30" as="geometry">
            <mxRectangle width="220" height="30" as="alternateBounds" />
          </mxGeometry>
        </mxCell>
        <mxCell id="ztNr5zMi71Uj7PbcgTAJ-31" value="" style="shape=partialRectangle;collapsible=0;dropTarget=0;pointerEvents=0;fillColor=#fff2cc;points=[[0,0.5],[1,0.5]];portConstraint=eastwest;top=0;left=0;right=0;bottom=0;strokeColor=#d6b656;" parent="C-vyLk0tnHw3VtMMgP7b-2" vertex="1">
          <mxGeometry y="180" width="250" height="30" as="geometry" />
        </mxCell>
        <mxCell id="ztNr5zMi71Uj7PbcgTAJ-32" value="str" style="shape=partialRectangle;overflow=hidden;connectable=0;fillColor=#fff2cc;top=0;left=0;bottom=0;right=0;strokeColor=#d6b656;" parent="ztNr5zMi71Uj7PbcgTAJ-31" vertex="1">
          <mxGeometry width="30" height="30" as="geometry">
            <mxRectangle width="30" height="30" as="alternateBounds" />
          </mxGeometry>
        </mxCell>
        <mxCell id="ztNr5zMi71Uj7PbcgTAJ-33" value="bio" style="shape=partialRectangle;overflow=hidden;connectable=0;fillColor=#fff2cc;top=0;left=0;bottom=0;right=0;align=center;spacingLeft=6;strokeColor=#d6b656;" parent="ztNr5zMi71Uj7PbcgTAJ-31" vertex="1">
          <mxGeometry x="30" width="220" height="30" as="geometry">
            <mxRectangle width="220" height="30" as="alternateBounds" />
          </mxGeometry>
        </mxCell>
        <mxCell id="ztNr5zMi71Uj7PbcgTAJ-34" value="" style="shape=partialRectangle;collapsible=0;dropTarget=0;pointerEvents=0;fillColor=#fff2cc;points=[[0,0.5],[1,0.5]];portConstraint=eastwest;top=0;left=0;right=0;bottom=0;strokeColor=#d6b656;" parent="C-vyLk0tnHw3VtMMgP7b-2" vertex="1">
          <mxGeometry y="210" width="250" height="30" as="geometry" />
        </mxCell>
        <mxCell id="ztNr5zMi71Uj7PbcgTAJ-35" value="str" style="shape=partialRectangle;overflow=hidden;connectable=0;fillColor=#fff2cc;top=0;left=0;bottom=0;right=0;strokeColor=#d6b656;" parent="ztNr5zMi71Uj7PbcgTAJ-34" vertex="1">
          <mxGeometry width="30" height="30" as="geometry">
            <mxRectangle width="30" height="30" as="alternateBounds" />
          </mxGeometry>
        </mxCell>
        <mxCell id="ztNr5zMi71Uj7PbcgTAJ-36" value="address" style="shape=partialRectangle;overflow=hidden;connectable=0;fillColor=#fff2cc;top=0;left=0;bottom=0;right=0;align=center;spacingLeft=6;strokeColor=#d6b656;" parent="ztNr5zMi71Uj7PbcgTAJ-34" vertex="1">
          <mxGeometry x="30" width="220" height="30" as="geometry">
            <mxRectangle width="220" height="30" as="alternateBounds" />
          </mxGeometry>
        </mxCell>
        <mxCell id="ztNr5zMi71Uj7PbcgTAJ-37" value="" style="shape=partialRectangle;collapsible=0;dropTarget=0;pointerEvents=0;fillColor=#fff2cc;points=[[0,0.5],[1,0.5]];portConstraint=eastwest;top=0;left=0;right=0;bottom=0;strokeColor=#d6b656;" parent="C-vyLk0tnHw3VtMMgP7b-2" vertex="1">
          <mxGeometry y="240" width="250" height="30" as="geometry" />
        </mxCell>
        <mxCell id="ztNr5zMi71Uj7PbcgTAJ-38" value="str" style="shape=partialRectangle;overflow=hidden;connectable=0;fillColor=#fff2cc;top=0;left=0;bottom=0;right=0;strokeColor=#d6b656;" parent="ztNr5zMi71Uj7PbcgTAJ-37" vertex="1">
          <mxGeometry width="30" height="30" as="geometry">
            <mxRectangle width="30" height="30" as="alternateBounds" />
          </mxGeometry>
        </mxCell>
        <mxCell id="ztNr5zMi71Uj7PbcgTAJ-39" value="job" style="shape=partialRectangle;overflow=hidden;connectable=0;fillColor=#fff2cc;top=0;left=0;bottom=0;right=0;align=center;spacingLeft=6;strokeColor=#d6b656;" parent="ztNr5zMi71Uj7PbcgTAJ-37" vertex="1">
          <mxGeometry x="30" width="220" height="30" as="geometry">
            <mxRectangle width="220" height="30" as="alternateBounds" />
          </mxGeometry>
        </mxCell>
        <mxCell id="cd6iIWrUwJYSX7RnLv2s-1" value="" style="shape=partialRectangle;collapsible=0;dropTarget=0;pointerEvents=0;fillColor=#fff2cc;points=[[0,0.5],[1,0.5]];portConstraint=eastwest;top=0;left=0;right=0;bottom=0;strokeColor=#d6b656;" vertex="1" parent="C-vyLk0tnHw3VtMMgP7b-2">
          <mxGeometry y="270" width="250" height="30" as="geometry" />
        </mxCell>
        <mxCell id="cd6iIWrUwJYSX7RnLv2s-2" value="str" style="shape=partialRectangle;overflow=hidden;connectable=0;fillColor=#fff2cc;top=0;left=0;bottom=0;right=0;strokeColor=#d6b656;" vertex="1" parent="cd6iIWrUwJYSX7RnLv2s-1">
          <mxGeometry width="30" height="30" as="geometry">
            <mxRectangle width="30" height="30" as="alternateBounds" />
          </mxGeometry>
        </mxCell>
        <mxCell id="cd6iIWrUwJYSX7RnLv2s-3" value="avatar" style="shape=partialRectangle;overflow=hidden;connectable=0;fillColor=#fff2cc;top=0;left=0;bottom=0;right=0;align=center;spacingLeft=6;strokeColor=#d6b656;" vertex="1" parent="cd6iIWrUwJYSX7RnLv2s-1">
          <mxGeometry x="30" width="220" height="30" as="geometry">
            <mxRectangle width="220" height="30" as="alternateBounds" />
          </mxGeometry>
        </mxCell>
        <mxCell id="C-vyLk0tnHw3VtMMgP7b-23" value="Auth" style="shape=table;startSize=30;container=1;collapsible=1;childLayout=tableLayout;fixedRows=1;rowLines=0;fontStyle=1;align=center;resizeLast=1;fillColor=#dae8fc;strokeColor=#6c8ebf;" parent="1" vertex="1">
          <mxGeometry x="70" y="80" width="250" height="150" as="geometry" />
        </mxCell>
        <mxCell id="C-vyLk0tnHw3VtMMgP7b-24" value="" style="shape=partialRectangle;collapsible=0;dropTarget=0;pointerEvents=0;fillColor=#dae8fc;points=[[0,0.5],[1,0.5]];portConstraint=eastwest;top=0;left=0;right=0;bottom=1;strokeColor=#6c8ebf;" parent="C-vyLk0tnHw3VtMMgP7b-23" vertex="1">
          <mxGeometry y="30" width="250" height="30" as="geometry" />
        </mxCell>
        <mxCell id="C-vyLk0tnHw3VtMMgP7b-25" value="PK" style="shape=partialRectangle;overflow=hidden;connectable=0;fillColor=#dae8fc;top=0;left=0;bottom=0;right=0;fontStyle=1;strokeColor=#6c8ebf;" parent="C-vyLk0tnHw3VtMMgP7b-24" vertex="1">
          <mxGeometry width="30" height="30" as="geometry">
            <mxRectangle width="30" height="30" as="alternateBounds" />
          </mxGeometry>
        </mxCell>
        <mxCell id="C-vyLk0tnHw3VtMMgP7b-26" value="userId" style="shape=partialRectangle;overflow=hidden;connectable=0;fillColor=#dae8fc;top=0;left=0;bottom=0;right=0;align=center;spacingLeft=6;fontStyle=5;strokeColor=#6c8ebf;" parent="C-vyLk0tnHw3VtMMgP7b-24" vertex="1">
          <mxGeometry x="30" width="220" height="30" as="geometry">
            <mxRectangle width="220" height="30" as="alternateBounds" />
          </mxGeometry>
        </mxCell>
        <mxCell id="C-vyLk0tnHw3VtMMgP7b-27" value="" style="shape=partialRectangle;collapsible=0;dropTarget=0;pointerEvents=0;fillColor=#dae8fc;points=[[0,0.5],[1,0.5]];portConstraint=eastwest;top=0;left=0;right=0;bottom=0;strokeColor=#6c8ebf;" parent="C-vyLk0tnHw3VtMMgP7b-23" vertex="1">
          <mxGeometry y="60" width="250" height="30" as="geometry" />
        </mxCell>
        <mxCell id="C-vyLk0tnHw3VtMMgP7b-28" value="str" style="shape=partialRectangle;overflow=hidden;connectable=0;fillColor=#dae8fc;top=0;left=0;bottom=0;right=0;strokeColor=#6c8ebf;" parent="C-vyLk0tnHw3VtMMgP7b-27" vertex="1">
          <mxGeometry width="30" height="30" as="geometry">
            <mxRectangle width="30" height="30" as="alternateBounds" />
          </mxGeometry>
        </mxCell>
        <mxCell id="C-vyLk0tnHw3VtMMgP7b-29" value="email" style="shape=partialRectangle;overflow=hidden;connectable=0;fillColor=#dae8fc;top=0;left=0;bottom=0;right=0;align=center;spacingLeft=6;strokeColor=#6c8ebf;" parent="C-vyLk0tnHw3VtMMgP7b-27" vertex="1">
          <mxGeometry x="30" width="220" height="30" as="geometry">
            <mxRectangle width="220" height="30" as="alternateBounds" />
          </mxGeometry>
        </mxCell>
        <mxCell id="ztNr5zMi71Uj7PbcgTAJ-16" value="" style="shape=partialRectangle;collapsible=0;dropTarget=0;pointerEvents=0;fillColor=#dae8fc;points=[[0,0.5],[1,0.5]];portConstraint=eastwest;top=0;left=0;right=0;bottom=0;strokeColor=#6c8ebf;" parent="C-vyLk0tnHw3VtMMgP7b-23" vertex="1">
          <mxGeometry y="90" width="250" height="30" as="geometry" />
        </mxCell>
        <mxCell id="ztNr5zMi71Uj7PbcgTAJ-17" value="str" style="shape=partialRectangle;overflow=hidden;connectable=0;fillColor=#dae8fc;top=0;left=0;bottom=0;right=0;strokeColor=#6c8ebf;" parent="ztNr5zMi71Uj7PbcgTAJ-16" vertex="1">
          <mxGeometry width="30" height="30" as="geometry">
            <mxRectangle width="30" height="30" as="alternateBounds" />
          </mxGeometry>
        </mxCell>
        <mxCell id="ztNr5zMi71Uj7PbcgTAJ-18" value="password" style="shape=partialRectangle;overflow=hidden;connectable=0;fillColor=#dae8fc;top=0;left=0;bottom=0;right=0;align=center;spacingLeft=6;strokeColor=#6c8ebf;" parent="ztNr5zMi71Uj7PbcgTAJ-16" vertex="1">
          <mxGeometry x="30" width="220" height="30" as="geometry">
            <mxRectangle width="220" height="30" as="alternateBounds" />
          </mxGeometry>
        </mxCell>
        <mxCell id="ztNr5zMi71Uj7PbcgTAJ-43" value="" style="shape=partialRectangle;collapsible=0;dropTarget=0;pointerEvents=0;fillColor=#dae8fc;points=[[0,0.5],[1,0.5]];portConstraint=eastwest;top=0;left=0;right=0;bottom=0;strokeColor=#6c8ebf;" parent="C-vyLk0tnHw3VtMMgP7b-23" vertex="1">
          <mxGeometry y="120" width="250" height="30" as="geometry" />
        </mxCell>
        <mxCell id="ztNr5zMi71Uj7PbcgTAJ-44" value="str" style="shape=partialRectangle;overflow=hidden;connectable=0;fillColor=#dae8fc;top=0;left=0;bottom=0;right=0;strokeColor=#6c8ebf;" parent="ztNr5zMi71Uj7PbcgTAJ-43" vertex="1">
          <mxGeometry width="30" height="30" as="geometry">
            <mxRectangle width="30" height="30" as="alternateBounds" />
          </mxGeometry>
        </mxCell>
        <mxCell id="ztNr5zMi71Uj7PbcgTAJ-45" value="role" style="shape=partialRectangle;overflow=hidden;connectable=0;fillColor=#dae8fc;top=0;left=0;bottom=0;right=0;align=center;spacingLeft=6;strokeColor=#6c8ebf;" parent="ztNr5zMi71Uj7PbcgTAJ-43" vertex="1">
          <mxGeometry x="30" width="220" height="30" as="geometry">
            <mxRectangle width="220" height="30" as="alternateBounds" />
          </mxGeometry>
        </mxCell>
        <mxCell id="ztNr5zMi71Uj7PbcgTAJ-47" value="Video" style="shape=table;startSize=30;container=1;collapsible=1;childLayout=tableLayout;fixedRows=1;rowLines=0;fontStyle=1;align=center;resizeLast=1;fillColor=#d5e8d4;strokeColor=#82b366;" parent="1" vertex="1">
          <mxGeometry x="60" y="330" width="250" height="300" as="geometry" />
        </mxCell>
        <mxCell id="ztNr5zMi71Uj7PbcgTAJ-48" value="" style="shape=partialRectangle;collapsible=0;dropTarget=0;pointerEvents=0;fillColor=#d5e8d4;points=[[0,0.5],[1,0.5]];portConstraint=eastwest;top=0;left=0;right=0;bottom=1;strokeColor=#82b366;" parent="ztNr5zMi71Uj7PbcgTAJ-47" vertex="1">
          <mxGeometry y="30" width="250" height="30" as="geometry" />
        </mxCell>
        <mxCell id="ztNr5zMi71Uj7PbcgTAJ-49" value="PK" style="shape=partialRectangle;overflow=hidden;connectable=0;fillColor=#d5e8d4;top=0;left=0;bottom=0;right=0;fontStyle=1;strokeColor=#82b366;" parent="ztNr5zMi71Uj7PbcgTAJ-48" vertex="1">
          <mxGeometry width="30" height="30" as="geometry">
            <mxRectangle width="30" height="30" as="alternateBounds" />
          </mxGeometry>
        </mxCell>
        <mxCell id="ztNr5zMi71Uj7PbcgTAJ-50" value="videoId" style="shape=partialRectangle;overflow=hidden;connectable=0;fillColor=#d5e8d4;top=0;left=0;bottom=0;right=0;align=center;spacingLeft=6;fontStyle=5;strokeColor=#82b366;" parent="ztNr5zMi71Uj7PbcgTAJ-48" vertex="1">
          <mxGeometry x="30" width="220" height="30" as="geometry">
            <mxRectangle width="220" height="30" as="alternateBounds" />
          </mxGeometry>
        </mxCell>
        <mxCell id="ztNr5zMi71Uj7PbcgTAJ-51" value="" style="shape=partialRectangle;collapsible=0;dropTarget=0;pointerEvents=0;fillColor=#d5e8d4;points=[[0,0.5],[1,0.5]];portConstraint=eastwest;top=0;left=0;right=0;bottom=0;strokeColor=#82b366;" parent="ztNr5zMi71Uj7PbcgTAJ-47" vertex="1">
          <mxGeometry y="60" width="250" height="30" as="geometry" />
        </mxCell>
        <mxCell id="ztNr5zMi71Uj7PbcgTAJ-52" value="FK1" style="shape=partialRectangle;overflow=hidden;connectable=0;fillColor=#d5e8d4;top=0;left=0;bottom=0;right=0;strokeColor=#82b366;" parent="ztNr5zMi71Uj7PbcgTAJ-51" vertex="1">
          <mxGeometry width="30" height="30" as="geometry">
            <mxRectangle width="30" height="30" as="alternateBounds" />
          </mxGeometry>
        </mxCell>
        <mxCell id="ztNr5zMi71Uj7PbcgTAJ-53" value="user ---&gt; Profile" style="shape=partialRectangle;overflow=hidden;connectable=0;fillColor=#d5e8d4;top=0;left=0;bottom=0;right=0;align=center;spacingLeft=6;strokeColor=#82b366;" parent="ztNr5zMi71Uj7PbcgTAJ-51" vertex="1">
          <mxGeometry x="30" width="220" height="30" as="geometry">
            <mxRectangle width="220" height="30" as="alternateBounds" />
          </mxGeometry>
        </mxCell>
        <mxCell id="ztNr5zMi71Uj7PbcgTAJ-54" value="" style="shape=partialRectangle;collapsible=0;dropTarget=0;pointerEvents=0;fillColor=#d5e8d4;points=[[0,0.5],[1,0.5]];portConstraint=eastwest;top=0;left=0;right=0;bottom=0;strokeColor=#82b366;" parent="ztNr5zMi71Uj7PbcgTAJ-47" vertex="1">
          <mxGeometry y="90" width="250" height="30" as="geometry" />
        </mxCell>
        <mxCell id="ztNr5zMi71Uj7PbcgTAJ-55" value="FK2" style="shape=partialRectangle;overflow=hidden;connectable=0;fillColor=#d5e8d4;top=0;left=0;bottom=0;right=0;strokeColor=#82b366;" parent="ztNr5zMi71Uj7PbcgTAJ-54" vertex="1">
          <mxGeometry width="30" height="30" as="geometry">
            <mxRectangle width="30" height="30" as="alternateBounds" />
          </mxGeometry>
        </mxCell>
        <mxCell id="ztNr5zMi71Uj7PbcgTAJ-56" value="likes ---&gt; Like[]" style="shape=partialRectangle;overflow=hidden;connectable=0;fillColor=#d5e8d4;top=0;left=0;bottom=0;right=0;align=center;spacingLeft=6;strokeColor=#82b366;" parent="ztNr5zMi71Uj7PbcgTAJ-54" vertex="1">
          <mxGeometry x="30" width="220" height="30" as="geometry">
            <mxRectangle width="220" height="30" as="alternateBounds" />
          </mxGeometry>
        </mxCell>
        <mxCell id="ztNr5zMi71Uj7PbcgTAJ-57" value="" style="shape=partialRectangle;collapsible=0;dropTarget=0;pointerEvents=0;fillColor=#d5e8d4;points=[[0,0.5],[1,0.5]];portConstraint=eastwest;top=0;left=0;right=0;bottom=0;strokeColor=#82b366;" parent="ztNr5zMi71Uj7PbcgTAJ-47" vertex="1">
          <mxGeometry y="120" width="250" height="30" as="geometry" />
        </mxCell>
        <mxCell id="ztNr5zMi71Uj7PbcgTAJ-58" value="FK3" style="shape=partialRectangle;overflow=hidden;connectable=0;fillColor=#d5e8d4;top=0;left=0;bottom=0;right=0;strokeColor=#82b366;" parent="ztNr5zMi71Uj7PbcgTAJ-57" vertex="1">
          <mxGeometry width="30" height="30" as="geometry">
            <mxRectangle width="30" height="30" as="alternateBounds" />
          </mxGeometry>
        </mxCell>
        <mxCell id="ztNr5zMi71Uj7PbcgTAJ-59" value="disLikes ---&gt; Like[]" style="shape=partialRectangle;overflow=hidden;connectable=0;fillColor=#d5e8d4;top=0;left=0;bottom=0;right=0;align=center;spacingLeft=6;strokeColor=#82b366;" parent="ztNr5zMi71Uj7PbcgTAJ-57" vertex="1">
          <mxGeometry x="30" width="220" height="30" as="geometry">
            <mxRectangle width="220" height="30" as="alternateBounds" />
          </mxGeometry>
        </mxCell>
        <mxCell id="ztNr5zMi71Uj7PbcgTAJ-60" value="" style="shape=partialRectangle;collapsible=0;dropTarget=0;pointerEvents=0;fillColor=#d5e8d4;points=[[0,0.5],[1,0.5]];portConstraint=eastwest;top=0;left=0;right=0;bottom=0;strokeColor=#82b366;" parent="ztNr5zMi71Uj7PbcgTAJ-47" vertex="1">
          <mxGeometry y="150" width="250" height="30" as="geometry" />
        </mxCell>
        <mxCell id="ztNr5zMi71Uj7PbcgTAJ-61" value="FK4" style="shape=partialRectangle;overflow=hidden;connectable=0;fillColor=#d5e8d4;top=0;left=0;bottom=0;right=0;strokeColor=#82b366;" parent="ztNr5zMi71Uj7PbcgTAJ-60" vertex="1">
          <mxGeometry width="30" height="30" as="geometry">
            <mxRectangle width="30" height="30" as="alternateBounds" />
          </mxGeometry>
        </mxCell>
        <mxCell id="ztNr5zMi71Uj7PbcgTAJ-62" value="comments ---&gt; Comment[]" style="shape=partialRectangle;overflow=hidden;connectable=0;fillColor=#d5e8d4;top=0;left=0;bottom=0;right=0;align=center;spacingLeft=6;strokeColor=#82b366;" parent="ztNr5zMi71Uj7PbcgTAJ-60" vertex="1">
          <mxGeometry x="30" width="220" height="30" as="geometry">
            <mxRectangle width="220" height="30" as="alternateBounds" />
          </mxGeometry>
        </mxCell>
        <mxCell id="ztNr5zMi71Uj7PbcgTAJ-63" value="" style="shape=partialRectangle;collapsible=0;dropTarget=0;pointerEvents=0;fillColor=#d5e8d4;points=[[0,0.5],[1,0.5]];portConstraint=eastwest;top=0;left=0;right=0;bottom=0;strokeColor=#82b366;" parent="ztNr5zMi71Uj7PbcgTAJ-47" vertex="1">
          <mxGeometry y="180" width="250" height="30" as="geometry" />
        </mxCell>
        <mxCell id="ztNr5zMi71Uj7PbcgTAJ-64" value="str" style="shape=partialRectangle;overflow=hidden;connectable=0;fillColor=#d5e8d4;top=0;left=0;bottom=0;right=0;strokeColor=#82b366;" parent="ztNr5zMi71Uj7PbcgTAJ-63" vertex="1">
          <mxGeometry width="30" height="30" as="geometry">
            <mxRectangle width="30" height="30" as="alternateBounds" />
          </mxGeometry>
        </mxCell>
        <mxCell id="ztNr5zMi71Uj7PbcgTAJ-65" value="title" style="shape=partialRectangle;overflow=hidden;connectable=0;fillColor=#d5e8d4;top=0;left=0;bottom=0;right=0;align=center;spacingLeft=6;strokeColor=#82b366;" parent="ztNr5zMi71Uj7PbcgTAJ-63" vertex="1">
          <mxGeometry x="30" width="220" height="30" as="geometry">
            <mxRectangle width="220" height="30" as="alternateBounds" />
          </mxGeometry>
        </mxCell>
        <mxCell id="ztNr5zMi71Uj7PbcgTAJ-66" value="" style="shape=partialRectangle;collapsible=0;dropTarget=0;pointerEvents=0;fillColor=#d5e8d4;points=[[0,0.5],[1,0.5]];portConstraint=eastwest;top=0;left=0;right=0;bottom=0;strokeColor=#82b366;" parent="ztNr5zMi71Uj7PbcgTAJ-47" vertex="1">
          <mxGeometry y="210" width="250" height="30" as="geometry" />
        </mxCell>
        <mxCell id="ztNr5zMi71Uj7PbcgTAJ-67" value="str" style="shape=partialRectangle;overflow=hidden;connectable=0;fillColor=#d5e8d4;top=0;left=0;bottom=0;right=0;strokeColor=#82b366;" parent="ztNr5zMi71Uj7PbcgTAJ-66" vertex="1">
          <mxGeometry width="30" height="30" as="geometry">
            <mxRectangle width="30" height="30" as="alternateBounds" />
          </mxGeometry>
        </mxCell>
        <mxCell id="ztNr5zMi71Uj7PbcgTAJ-68" value="description" style="shape=partialRectangle;overflow=hidden;connectable=0;fillColor=#d5e8d4;top=0;left=0;bottom=0;right=0;align=center;spacingLeft=6;strokeColor=#82b366;" parent="ztNr5zMi71Uj7PbcgTAJ-66" vertex="1">
          <mxGeometry x="30" width="220" height="30" as="geometry">
            <mxRectangle width="220" height="30" as="alternateBounds" />
          </mxGeometry>
        </mxCell>
        <mxCell id="ztNr5zMi71Uj7PbcgTAJ-69" value="" style="shape=partialRectangle;collapsible=0;dropTarget=0;pointerEvents=0;fillColor=#d5e8d4;points=[[0,0.5],[1,0.5]];portConstraint=eastwest;top=0;left=0;right=0;bottom=0;strokeColor=#82b366;" parent="ztNr5zMi71Uj7PbcgTAJ-47" vertex="1">
          <mxGeometry y="240" width="250" height="30" as="geometry" />
        </mxCell>
        <mxCell id="ztNr5zMi71Uj7PbcgTAJ-70" value="str" style="shape=partialRectangle;overflow=hidden;connectable=0;fillColor=#d5e8d4;top=0;left=0;bottom=0;right=0;strokeColor=#82b366;" parent="ztNr5zMi71Uj7PbcgTAJ-69" vertex="1">
          <mxGeometry width="30" height="30" as="geometry">
            <mxRectangle width="30" height="30" as="alternateBounds" />
          </mxGeometry>
        </mxCell>
        <mxCell id="ztNr5zMi71Uj7PbcgTAJ-71" value="url" style="shape=partialRectangle;overflow=hidden;connectable=0;fillColor=#d5e8d4;top=0;left=0;bottom=0;right=0;align=center;spacingLeft=6;strokeColor=#82b366;" parent="ztNr5zMi71Uj7PbcgTAJ-69" vertex="1">
          <mxGeometry x="30" width="220" height="30" as="geometry">
            <mxRectangle width="220" height="30" as="alternateBounds" />
          </mxGeometry>
        </mxCell>
        <mxCell id="ztNr5zMi71Uj7PbcgTAJ-72" value="" style="shape=partialRectangle;collapsible=0;dropTarget=0;pointerEvents=0;fillColor=#d5e8d4;points=[[0,0.5],[1,0.5]];portConstraint=eastwest;top=0;left=0;right=0;bottom=0;strokeColor=#82b366;" parent="ztNr5zMi71Uj7PbcgTAJ-47" vertex="1">
          <mxGeometry y="270" width="250" height="30" as="geometry" />
        </mxCell>
        <mxCell id="ztNr5zMi71Uj7PbcgTAJ-73" value="int" style="shape=partialRectangle;overflow=hidden;connectable=0;fillColor=#d5e8d4;top=0;left=0;bottom=0;right=0;strokeColor=#82b366;" parent="ztNr5zMi71Uj7PbcgTAJ-72" vertex="1">
          <mxGeometry width="30" height="30" as="geometry">
            <mxRectangle width="30" height="30" as="alternateBounds" />
          </mxGeometry>
        </mxCell>
        <mxCell id="ztNr5zMi71Uj7PbcgTAJ-74" value="views" style="shape=partialRectangle;overflow=hidden;connectable=0;fillColor=#d5e8d4;top=0;left=0;bottom=0;right=0;align=center;spacingLeft=6;strokeColor=#82b366;" parent="ztNr5zMi71Uj7PbcgTAJ-72" vertex="1">
          <mxGeometry x="30" width="220" height="30" as="geometry">
            <mxRectangle width="220" height="30" as="alternateBounds" />
          </mxGeometry>
        </mxCell>
        <mxCell id="ztNr5zMi71Uj7PbcgTAJ-75" value="Comment" style="shape=table;startSize=30;container=1;collapsible=1;childLayout=tableLayout;fixedRows=1;rowLines=0;fontStyle=1;align=center;resizeLast=1;fillColor=#e1d5e7;strokeColor=#9673a6;" parent="1" vertex="1">
          <mxGeometry x="530" y="460" width="250" height="240" as="geometry" />
        </mxCell>
        <mxCell id="ztNr5zMi71Uj7PbcgTAJ-76" value="" style="shape=partialRectangle;collapsible=0;dropTarget=0;pointerEvents=0;fillColor=#e1d5e7;points=[[0,0.5],[1,0.5]];portConstraint=eastwest;top=0;left=0;right=0;bottom=1;strokeColor=#9673a6;" parent="ztNr5zMi71Uj7PbcgTAJ-75" vertex="1">
          <mxGeometry y="30" width="250" height="30" as="geometry" />
        </mxCell>
        <mxCell id="ztNr5zMi71Uj7PbcgTAJ-77" value="PK" style="shape=partialRectangle;overflow=hidden;connectable=0;fillColor=#e1d5e7;top=0;left=0;bottom=0;right=0;fontStyle=1;strokeColor=#9673a6;" parent="ztNr5zMi71Uj7PbcgTAJ-76" vertex="1">
          <mxGeometry width="30" height="30" as="geometry">
            <mxRectangle width="30" height="30" as="alternateBounds" />
          </mxGeometry>
        </mxCell>
        <mxCell id="ztNr5zMi71Uj7PbcgTAJ-78" value="commentId" style="shape=partialRectangle;overflow=hidden;connectable=0;fillColor=#e1d5e7;top=0;left=0;bottom=0;right=0;align=center;spacingLeft=6;fontStyle=5;strokeColor=#9673a6;" parent="ztNr5zMi71Uj7PbcgTAJ-76" vertex="1">
          <mxGeometry x="30" width="220" height="30" as="geometry">
            <mxRectangle width="220" height="30" as="alternateBounds" />
          </mxGeometry>
        </mxCell>
        <mxCell id="ztNr5zMi71Uj7PbcgTAJ-79" value="" style="shape=partialRectangle;collapsible=0;dropTarget=0;pointerEvents=0;fillColor=#e1d5e7;points=[[0,0.5],[1,0.5]];portConstraint=eastwest;top=0;left=0;right=0;bottom=0;strokeColor=#9673a6;" parent="ztNr5zMi71Uj7PbcgTAJ-75" vertex="1">
          <mxGeometry y="60" width="250" height="30" as="geometry" />
        </mxCell>
        <mxCell id="ztNr5zMi71Uj7PbcgTAJ-80" value="FK1" style="shape=partialRectangle;overflow=hidden;connectable=0;fillColor=#e1d5e7;top=0;left=0;bottom=0;right=0;strokeColor=#9673a6;" parent="ztNr5zMi71Uj7PbcgTAJ-79" vertex="1">
          <mxGeometry width="30" height="30" as="geometry">
            <mxRectangle width="30" height="30" as="alternateBounds" />
          </mxGeometry>
        </mxCell>
        <mxCell id="ztNr5zMi71Uj7PbcgTAJ-81" value="user ---&gt; Profile" style="shape=partialRectangle;overflow=hidden;connectable=0;fillColor=#e1d5e7;top=0;left=0;bottom=0;right=0;align=center;spacingLeft=6;strokeColor=#9673a6;" parent="ztNr5zMi71Uj7PbcgTAJ-79" vertex="1">
          <mxGeometry x="30" width="220" height="30" as="geometry">
            <mxRectangle width="220" height="30" as="alternateBounds" />
          </mxGeometry>
        </mxCell>
        <mxCell id="ztNr5zMi71Uj7PbcgTAJ-82" value="" style="shape=partialRectangle;collapsible=0;dropTarget=0;pointerEvents=0;fillColor=#e1d5e7;points=[[0,0.5],[1,0.5]];portConstraint=eastwest;top=0;left=0;right=0;bottom=0;strokeColor=#9673a6;" parent="ztNr5zMi71Uj7PbcgTAJ-75" vertex="1">
          <mxGeometry y="90" width="250" height="30" as="geometry" />
        </mxCell>
        <mxCell id="ztNr5zMi71Uj7PbcgTAJ-83" value="FK2" style="shape=partialRectangle;overflow=hidden;connectable=0;fillColor=#e1d5e7;top=0;left=0;bottom=0;right=0;strokeColor=#9673a6;" parent="ztNr5zMi71Uj7PbcgTAJ-82" vertex="1">
          <mxGeometry width="30" height="30" as="geometry">
            <mxRectangle width="30" height="30" as="alternateBounds" />
          </mxGeometry>
        </mxCell>
        <mxCell id="ztNr5zMi71Uj7PbcgTAJ-84" value="likes ---&gt; Like[]" style="shape=partialRectangle;overflow=hidden;connectable=0;fillColor=#e1d5e7;top=0;left=0;bottom=0;right=0;align=center;spacingLeft=6;strokeColor=#9673a6;" parent="ztNr5zMi71Uj7PbcgTAJ-82" vertex="1">
          <mxGeometry x="30" width="220" height="30" as="geometry">
            <mxRectangle width="220" height="30" as="alternateBounds" />
          </mxGeometry>
        </mxCell>
        <mxCell id="ztNr5zMi71Uj7PbcgTAJ-85" value="" style="shape=partialRectangle;collapsible=0;dropTarget=0;pointerEvents=0;fillColor=#e1d5e7;points=[[0,0.5],[1,0.5]];portConstraint=eastwest;top=0;left=0;right=0;bottom=0;strokeColor=#9673a6;" parent="ztNr5zMi71Uj7PbcgTAJ-75" vertex="1">
          <mxGeometry y="120" width="250" height="30" as="geometry" />
        </mxCell>
        <mxCell id="ztNr5zMi71Uj7PbcgTAJ-86" value="FK3" style="shape=partialRectangle;overflow=hidden;connectable=0;fillColor=#e1d5e7;top=0;left=0;bottom=0;right=0;strokeColor=#9673a6;" parent="ztNr5zMi71Uj7PbcgTAJ-85" vertex="1">
          <mxGeometry width="30" height="30" as="geometry">
            <mxRectangle width="30" height="30" as="alternateBounds" />
          </mxGeometry>
        </mxCell>
        <mxCell id="ztNr5zMi71Uj7PbcgTAJ-87" value="disLikes ---&gt; Like[]" style="shape=partialRectangle;overflow=hidden;connectable=0;fillColor=#e1d5e7;top=0;left=0;bottom=0;right=0;align=center;spacingLeft=6;strokeColor=#9673a6;" parent="ztNr5zMi71Uj7PbcgTAJ-85" vertex="1">
          <mxGeometry x="30" width="220" height="30" as="geometry">
            <mxRectangle width="220" height="30" as="alternateBounds" />
          </mxGeometry>
        </mxCell>
        <mxCell id="ztNr5zMi71Uj7PbcgTAJ-88" value="" style="shape=partialRectangle;collapsible=0;dropTarget=0;pointerEvents=0;fillColor=#e1d5e7;points=[[0,0.5],[1,0.5]];portConstraint=eastwest;top=0;left=0;right=0;bottom=0;strokeColor=#9673a6;" parent="ztNr5zMi71Uj7PbcgTAJ-75" vertex="1">
          <mxGeometry y="150" width="250" height="30" as="geometry" />
        </mxCell>
        <mxCell id="ztNr5zMi71Uj7PbcgTAJ-89" value="FK4" style="shape=partialRectangle;overflow=hidden;connectable=0;fillColor=#e1d5e7;top=0;left=0;bottom=0;right=0;strokeColor=#9673a6;" parent="ztNr5zMi71Uj7PbcgTAJ-88" vertex="1">
          <mxGeometry width="30" height="30" as="geometry">
            <mxRectangle width="30" height="30" as="alternateBounds" />
          </mxGeometry>
        </mxCell>
        <mxCell id="ztNr5zMi71Uj7PbcgTAJ-90" value="reply ---&gt; Comment[]" style="shape=partialRectangle;overflow=hidden;connectable=0;fillColor=#e1d5e7;top=0;left=0;bottom=0;right=0;align=center;spacingLeft=6;strokeColor=#9673a6;" parent="ztNr5zMi71Uj7PbcgTAJ-88" vertex="1">
          <mxGeometry x="30" width="220" height="30" as="geometry">
            <mxRectangle width="220" height="30" as="alternateBounds" />
          </mxGeometry>
        </mxCell>
        <mxCell id="ztNr5zMi71Uj7PbcgTAJ-91" value="" style="shape=partialRectangle;collapsible=0;dropTarget=0;pointerEvents=0;fillColor=#e1d5e7;points=[[0,0.5],[1,0.5]];portConstraint=eastwest;top=0;left=0;right=0;bottom=0;strokeColor=#9673a6;" parent="ztNr5zMi71Uj7PbcgTAJ-75" vertex="1">
          <mxGeometry y="180" width="250" height="30" as="geometry" />
        </mxCell>
        <mxCell id="ztNr5zMi71Uj7PbcgTAJ-92" value="SJ" style="shape=partialRectangle;overflow=hidden;connectable=0;fillColor=#e1d5e7;top=0;left=0;bottom=0;right=0;strokeColor=#9673a6;" parent="ztNr5zMi71Uj7PbcgTAJ-91" vertex="1">
          <mxGeometry width="30" height="30" as="geometry">
            <mxRectangle width="30" height="30" as="alternateBounds" />
          </mxGeometry>
        </mxCell>
        <mxCell id="ztNr5zMi71Uj7PbcgTAJ-93" value="parentComment ---&gt; Comment" style="shape=partialRectangle;overflow=hidden;connectable=0;fillColor=#e1d5e7;top=0;left=0;bottom=0;right=0;align=center;spacingLeft=6;strokeColor=#9673a6;" parent="ztNr5zMi71Uj7PbcgTAJ-91" vertex="1">
          <mxGeometry x="30" width="220" height="30" as="geometry">
            <mxRectangle width="220" height="30" as="alternateBounds" />
          </mxGeometry>
        </mxCell>
        <mxCell id="ztNr5zMi71Uj7PbcgTAJ-94" value="" style="shape=partialRectangle;collapsible=0;dropTarget=0;pointerEvents=0;fillColor=#e1d5e7;points=[[0,0.5],[1,0.5]];portConstraint=eastwest;top=0;left=0;right=0;bottom=0;strokeColor=#9673a6;" parent="ztNr5zMi71Uj7PbcgTAJ-75" vertex="1">
          <mxGeometry y="210" width="250" height="30" as="geometry" />
        </mxCell>
        <mxCell id="ztNr5zMi71Uj7PbcgTAJ-95" value="str" style="shape=partialRectangle;overflow=hidden;connectable=0;fillColor=#e1d5e7;top=0;left=0;bottom=0;right=0;strokeColor=#9673a6;" parent="ztNr5zMi71Uj7PbcgTAJ-94" vertex="1">
          <mxGeometry width="30" height="30" as="geometry">
            <mxRectangle width="30" height="30" as="alternateBounds" />
          </mxGeometry>
        </mxCell>
        <mxCell id="ztNr5zMi71Uj7PbcgTAJ-96" value="text" style="shape=partialRectangle;overflow=hidden;connectable=0;fillColor=#e1d5e7;top=0;left=0;bottom=0;right=0;align=center;spacingLeft=6;strokeColor=#9673a6;" parent="ztNr5zMi71Uj7PbcgTAJ-94" vertex="1">
          <mxGeometry x="30" width="220" height="30" as="geometry">
            <mxRectangle width="220" height="30" as="alternateBounds" />
          </mxGeometry>
        </mxCell>
        <mxCell id="cd6iIWrUwJYSX7RnLv2s-77" value="" style="edgeStyle=none;orthogonalLoop=1;jettySize=auto;html=1;rounded=0;curved=1;exitX=1;exitY=0.5;exitDx=0;exitDy=0;entryX=1;entryY=0.75;entryDx=0;entryDy=0;fillColor=#e1d5e7;strokeColor=#9673a6;" edge="1" parent="ztNr5zMi71Uj7PbcgTAJ-75" source="ztNr5zMi71Uj7PbcgTAJ-85" target="ztNr5zMi71Uj7PbcgTAJ-75">
          <mxGeometry width="100" relative="1" as="geometry">
            <mxPoint x="260" y="130" as="sourcePoint" />
            <mxPoint x="280" y="190" as="targetPoint" />
            <Array as="points">
              <mxPoint x="310" y="130" />
              <mxPoint x="340" y="160" />
              <mxPoint x="320" y="180" />
            </Array>
          </mxGeometry>
        </mxCell>
        <mxCell id="cd6iIWrUwJYSX7RnLv2s-4" value="Like" style="shape=table;startSize=30;container=1;collapsible=1;childLayout=tableLayout;fixedRows=1;rowLines=0;fontStyle=1;align=center;resizeLast=1;fillColor=#e51400;fontColor=#ffffff;strokeColor=#B20000;" vertex="1" parent="1">
          <mxGeometry x="970" y="70" width="250" height="210" as="geometry" />
        </mxCell>
        <mxCell id="cd6iIWrUwJYSX7RnLv2s-5" value="" style="shape=partialRectangle;collapsible=0;dropTarget=0;pointerEvents=0;fillColor=#e51400;points=[[0,0.5],[1,0.5]];portConstraint=eastwest;top=0;left=0;right=0;bottom=1;fontColor=#ffffff;strokeColor=#B20000;" vertex="1" parent="cd6iIWrUwJYSX7RnLv2s-4">
          <mxGeometry y="30" width="250" height="30" as="geometry" />
        </mxCell>
        <mxCell id="cd6iIWrUwJYSX7RnLv2s-6" value="PK" style="shape=partialRectangle;overflow=hidden;connectable=0;fillColor=#e51400;top=0;left=0;bottom=0;right=0;fontStyle=1;fontColor=#ffffff;strokeColor=#B20000;" vertex="1" parent="cd6iIWrUwJYSX7RnLv2s-5">
          <mxGeometry width="30" height="30" as="geometry">
            <mxRectangle width="30" height="30" as="alternateBounds" />
          </mxGeometry>
        </mxCell>
        <mxCell id="cd6iIWrUwJYSX7RnLv2s-7" value="likeId" style="shape=partialRectangle;overflow=hidden;connectable=0;fillColor=#e51400;top=0;left=0;bottom=0;right=0;align=center;spacingLeft=6;fontStyle=5;fontColor=#ffffff;strokeColor=#B20000;" vertex="1" parent="cd6iIWrUwJYSX7RnLv2s-5">
          <mxGeometry x="30" width="220" height="30" as="geometry">
            <mxRectangle width="220" height="30" as="alternateBounds" />
          </mxGeometry>
        </mxCell>
        <mxCell id="cd6iIWrUwJYSX7RnLv2s-8" value="" style="shape=partialRectangle;collapsible=0;dropTarget=0;pointerEvents=0;fillColor=#e51400;points=[[0,0.5],[1,0.5]];portConstraint=eastwest;top=0;left=0;right=0;bottom=0;fontColor=#ffffff;strokeColor=#B20000;" vertex="1" parent="cd6iIWrUwJYSX7RnLv2s-4">
          <mxGeometry y="60" width="250" height="30" as="geometry" />
        </mxCell>
        <mxCell id="cd6iIWrUwJYSX7RnLv2s-9" value="FK1" style="shape=partialRectangle;overflow=hidden;connectable=0;fillColor=#e51400;top=0;left=0;bottom=0;right=0;fontColor=#ffffff;strokeColor=#B20000;" vertex="1" parent="cd6iIWrUwJYSX7RnLv2s-8">
          <mxGeometry width="30" height="30" as="geometry">
            <mxRectangle width="30" height="30" as="alternateBounds" />
          </mxGeometry>
        </mxCell>
        <mxCell id="cd6iIWrUwJYSX7RnLv2s-10" value="user ---&gt; Profile" style="shape=partialRectangle;overflow=hidden;connectable=0;fillColor=#e51400;top=0;left=0;bottom=0;right=0;align=center;spacingLeft=6;fontColor=#ffffff;strokeColor=#B20000;" vertex="1" parent="cd6iIWrUwJYSX7RnLv2s-8">
          <mxGeometry x="30" width="220" height="30" as="geometry">
            <mxRectangle width="220" height="30" as="alternateBounds" />
          </mxGeometry>
        </mxCell>
        <mxCell id="cd6iIWrUwJYSX7RnLv2s-11" value="" style="shape=partialRectangle;collapsible=0;dropTarget=0;pointerEvents=0;fillColor=#e51400;points=[[0,0.5],[1,0.5]];portConstraint=eastwest;top=0;left=0;right=0;bottom=0;fontColor=#ffffff;strokeColor=#B20000;" vertex="1" parent="cd6iIWrUwJYSX7RnLv2s-4">
          <mxGeometry y="90" width="250" height="30" as="geometry" />
        </mxCell>
        <mxCell id="cd6iIWrUwJYSX7RnLv2s-12" value="FK2" style="shape=partialRectangle;overflow=hidden;connectable=0;fillColor=#e51400;top=0;left=0;bottom=0;right=0;fontColor=#ffffff;strokeColor=#B20000;" vertex="1" parent="cd6iIWrUwJYSX7RnLv2s-11">
          <mxGeometry width="30" height="30" as="geometry">
            <mxRectangle width="30" height="30" as="alternateBounds" />
          </mxGeometry>
        </mxCell>
        <mxCell id="cd6iIWrUwJYSX7RnLv2s-13" value="video ---&gt; Video" style="shape=partialRectangle;overflow=hidden;connectable=0;fillColor=#e51400;top=0;left=0;bottom=0;right=0;align=center;spacingLeft=6;fontColor=#ffffff;strokeColor=#B20000;" vertex="1" parent="cd6iIWrUwJYSX7RnLv2s-11">
          <mxGeometry x="30" width="220" height="30" as="geometry">
            <mxRectangle width="220" height="30" as="alternateBounds" />
          </mxGeometry>
        </mxCell>
        <mxCell id="cd6iIWrUwJYSX7RnLv2s-14" value="" style="shape=partialRectangle;collapsible=0;dropTarget=0;pointerEvents=0;fillColor=#e51400;points=[[0,0.5],[1,0.5]];portConstraint=eastwest;top=0;left=0;right=0;bottom=0;fontColor=#ffffff;strokeColor=#B20000;" vertex="1" parent="cd6iIWrUwJYSX7RnLv2s-4">
          <mxGeometry y="120" width="250" height="30" as="geometry" />
        </mxCell>
        <mxCell id="cd6iIWrUwJYSX7RnLv2s-15" value="FK3" style="shape=partialRectangle;overflow=hidden;connectable=0;fillColor=#e51400;top=0;left=0;bottom=0;right=0;fontColor=#ffffff;strokeColor=#B20000;" vertex="1" parent="cd6iIWrUwJYSX7RnLv2s-14">
          <mxGeometry width="30" height="30" as="geometry">
            <mxRectangle width="30" height="30" as="alternateBounds" />
          </mxGeometry>
        </mxCell>
        <mxCell id="cd6iIWrUwJYSX7RnLv2s-16" value="comment ---&gt; Comment" style="shape=partialRectangle;overflow=hidden;connectable=0;fillColor=#e51400;top=0;left=0;bottom=0;right=0;align=center;spacingLeft=6;fontColor=#ffffff;strokeColor=#B20000;" vertex="1" parent="cd6iIWrUwJYSX7RnLv2s-14">
          <mxGeometry x="30" width="220" height="30" as="geometry">
            <mxRectangle width="220" height="30" as="alternateBounds" />
          </mxGeometry>
        </mxCell>
        <mxCell id="cd6iIWrUwJYSX7RnLv2s-17" value="" style="shape=partialRectangle;collapsible=0;dropTarget=0;pointerEvents=0;fillColor=#e51400;points=[[0,0.5],[1,0.5]];portConstraint=eastwest;top=0;left=0;right=0;bottom=0;fontColor=#ffffff;strokeColor=#B20000;" vertex="1" parent="cd6iIWrUwJYSX7RnLv2s-4">
          <mxGeometry y="150" width="250" height="30" as="geometry" />
        </mxCell>
        <mxCell id="cd6iIWrUwJYSX7RnLv2s-18" value="str" style="shape=partialRectangle;overflow=hidden;connectable=0;fillColor=#e51400;top=0;left=0;bottom=0;right=0;fontColor=#ffffff;strokeColor=#B20000;" vertex="1" parent="cd6iIWrUwJYSX7RnLv2s-17">
          <mxGeometry width="30" height="30" as="geometry">
            <mxRectangle width="30" height="30" as="alternateBounds" />
          </mxGeometry>
        </mxCell>
        <mxCell id="cd6iIWrUwJYSX7RnLv2s-19" value="entityType" style="shape=partialRectangle;overflow=hidden;connectable=0;fillColor=#e51400;top=0;left=0;bottom=0;right=0;align=center;spacingLeft=6;fontColor=#ffffff;strokeColor=#B20000;" vertex="1" parent="cd6iIWrUwJYSX7RnLv2s-17">
          <mxGeometry x="30" width="220" height="30" as="geometry">
            <mxRectangle width="220" height="30" as="alternateBounds" />
          </mxGeometry>
        </mxCell>
        <mxCell id="cd6iIWrUwJYSX7RnLv2s-20" value="" style="shape=partialRectangle;collapsible=0;dropTarget=0;pointerEvents=0;fillColor=#e51400;points=[[0,0.5],[1,0.5]];portConstraint=eastwest;top=0;left=0;right=0;bottom=0;fontColor=#ffffff;strokeColor=#B20000;" vertex="1" parent="cd6iIWrUwJYSX7RnLv2s-4">
          <mxGeometry y="180" width="250" height="30" as="geometry" />
        </mxCell>
        <mxCell id="cd6iIWrUwJYSX7RnLv2s-21" value="str" style="shape=partialRectangle;overflow=hidden;connectable=0;fillColor=#e51400;top=0;left=0;bottom=0;right=0;fontColor=#ffffff;strokeColor=#B20000;" vertex="1" parent="cd6iIWrUwJYSX7RnLv2s-20">
          <mxGeometry width="30" height="30" as="geometry">
            <mxRectangle width="30" height="30" as="alternateBounds" />
          </mxGeometry>
        </mxCell>
        <mxCell id="cd6iIWrUwJYSX7RnLv2s-22" value="entityId" style="shape=partialRectangle;overflow=hidden;connectable=0;fillColor=#e51400;top=0;left=0;bottom=0;right=0;align=center;spacingLeft=6;fontColor=#ffffff;strokeColor=#B20000;" vertex="1" parent="cd6iIWrUwJYSX7RnLv2s-20">
          <mxGeometry x="30" width="220" height="30" as="geometry">
            <mxRectangle width="220" height="30" as="alternateBounds" />
          </mxGeometry>
        </mxCell>
        <mxCell id="cd6iIWrUwJYSX7RnLv2s-26" value="DisLike" style="shape=table;startSize=30;container=1;collapsible=1;childLayout=tableLayout;fixedRows=1;rowLines=0;fontStyle=1;align=center;resizeLast=1;fillColor=#a0522d;fontColor=#ffffff;strokeColor=#6D1F00;" vertex="1" parent="1">
          <mxGeometry x="980" y="440" width="250" height="210" as="geometry" />
        </mxCell>
        <mxCell id="cd6iIWrUwJYSX7RnLv2s-27" value="" style="shape=partialRectangle;collapsible=0;dropTarget=0;pointerEvents=0;fillColor=#a0522d;points=[[0,0.5],[1,0.5]];portConstraint=eastwest;top=0;left=0;right=0;bottom=1;fontColor=#ffffff;strokeColor=#6D1F00;" vertex="1" parent="cd6iIWrUwJYSX7RnLv2s-26">
          <mxGeometry y="30" width="250" height="30" as="geometry" />
        </mxCell>
        <mxCell id="cd6iIWrUwJYSX7RnLv2s-28" value="PK" style="shape=partialRectangle;overflow=hidden;connectable=0;fillColor=#a0522d;top=0;left=0;bottom=0;right=0;fontStyle=1;fontColor=#ffffff;strokeColor=#6D1F00;" vertex="1" parent="cd6iIWrUwJYSX7RnLv2s-27">
          <mxGeometry width="30" height="30" as="geometry">
            <mxRectangle width="30" height="30" as="alternateBounds" />
          </mxGeometry>
        </mxCell>
        <mxCell id="cd6iIWrUwJYSX7RnLv2s-29" value="disLikeId" style="shape=partialRectangle;overflow=hidden;connectable=0;fillColor=#a0522d;top=0;left=0;bottom=0;right=0;align=center;spacingLeft=6;fontStyle=5;fontColor=#ffffff;strokeColor=#6D1F00;" vertex="1" parent="cd6iIWrUwJYSX7RnLv2s-27">
          <mxGeometry x="30" width="220" height="30" as="geometry">
            <mxRectangle width="220" height="30" as="alternateBounds" />
          </mxGeometry>
        </mxCell>
        <mxCell id="cd6iIWrUwJYSX7RnLv2s-30" value="" style="shape=partialRectangle;collapsible=0;dropTarget=0;pointerEvents=0;fillColor=#a0522d;points=[[0,0.5],[1,0.5]];portConstraint=eastwest;top=0;left=0;right=0;bottom=0;fontColor=#ffffff;strokeColor=#6D1F00;" vertex="1" parent="cd6iIWrUwJYSX7RnLv2s-26">
          <mxGeometry y="60" width="250" height="30" as="geometry" />
        </mxCell>
        <mxCell id="cd6iIWrUwJYSX7RnLv2s-31" value="FK1" style="shape=partialRectangle;overflow=hidden;connectable=0;fillColor=#a0522d;top=0;left=0;bottom=0;right=0;fontColor=#ffffff;strokeColor=#6D1F00;" vertex="1" parent="cd6iIWrUwJYSX7RnLv2s-30">
          <mxGeometry width="30" height="30" as="geometry">
            <mxRectangle width="30" height="30" as="alternateBounds" />
          </mxGeometry>
        </mxCell>
        <mxCell id="cd6iIWrUwJYSX7RnLv2s-32" value="user ---&gt; Profile" style="shape=partialRectangle;overflow=hidden;connectable=0;fillColor=#a0522d;top=0;left=0;bottom=0;right=0;align=center;spacingLeft=6;fontColor=#ffffff;strokeColor=#6D1F00;" vertex="1" parent="cd6iIWrUwJYSX7RnLv2s-30">
          <mxGeometry x="30" width="220" height="30" as="geometry">
            <mxRectangle width="220" height="30" as="alternateBounds" />
          </mxGeometry>
        </mxCell>
        <mxCell id="cd6iIWrUwJYSX7RnLv2s-33" value="" style="shape=partialRectangle;collapsible=0;dropTarget=0;pointerEvents=0;fillColor=#a0522d;points=[[0,0.5],[1,0.5]];portConstraint=eastwest;top=0;left=0;right=0;bottom=0;fontColor=#ffffff;strokeColor=#6D1F00;" vertex="1" parent="cd6iIWrUwJYSX7RnLv2s-26">
          <mxGeometry y="90" width="250" height="30" as="geometry" />
        </mxCell>
        <mxCell id="cd6iIWrUwJYSX7RnLv2s-34" value="FK2" style="shape=partialRectangle;overflow=hidden;connectable=0;fillColor=#a0522d;top=0;left=0;bottom=0;right=0;fontColor=#ffffff;strokeColor=#6D1F00;" vertex="1" parent="cd6iIWrUwJYSX7RnLv2s-33">
          <mxGeometry width="30" height="30" as="geometry">
            <mxRectangle width="30" height="30" as="alternateBounds" />
          </mxGeometry>
        </mxCell>
        <mxCell id="cd6iIWrUwJYSX7RnLv2s-35" value="video ---&gt; Video" style="shape=partialRectangle;overflow=hidden;connectable=0;fillColor=#a0522d;top=0;left=0;bottom=0;right=0;align=center;spacingLeft=6;fontColor=#ffffff;strokeColor=#6D1F00;" vertex="1" parent="cd6iIWrUwJYSX7RnLv2s-33">
          <mxGeometry x="30" width="220" height="30" as="geometry">
            <mxRectangle width="220" height="30" as="alternateBounds" />
          </mxGeometry>
        </mxCell>
        <mxCell id="cd6iIWrUwJYSX7RnLv2s-36" value="" style="shape=partialRectangle;collapsible=0;dropTarget=0;pointerEvents=0;fillColor=#a0522d;points=[[0,0.5],[1,0.5]];portConstraint=eastwest;top=0;left=0;right=0;bottom=0;fontColor=#ffffff;strokeColor=#6D1F00;" vertex="1" parent="cd6iIWrUwJYSX7RnLv2s-26">
          <mxGeometry y="120" width="250" height="30" as="geometry" />
        </mxCell>
        <mxCell id="cd6iIWrUwJYSX7RnLv2s-37" value="FK3" style="shape=partialRectangle;overflow=hidden;connectable=0;fillColor=#a0522d;top=0;left=0;bottom=0;right=0;fontColor=#ffffff;strokeColor=#6D1F00;" vertex="1" parent="cd6iIWrUwJYSX7RnLv2s-36">
          <mxGeometry width="30" height="30" as="geometry">
            <mxRectangle width="30" height="30" as="alternateBounds" />
          </mxGeometry>
        </mxCell>
        <mxCell id="cd6iIWrUwJYSX7RnLv2s-38" value="comment ---&gt; Comment" style="shape=partialRectangle;overflow=hidden;connectable=0;fillColor=#a0522d;top=0;left=0;bottom=0;right=0;align=center;spacingLeft=6;fontColor=#ffffff;strokeColor=#6D1F00;" vertex="1" parent="cd6iIWrUwJYSX7RnLv2s-36">
          <mxGeometry x="30" width="220" height="30" as="geometry">
            <mxRectangle width="220" height="30" as="alternateBounds" />
          </mxGeometry>
        </mxCell>
        <mxCell id="cd6iIWrUwJYSX7RnLv2s-39" value="" style="shape=partialRectangle;collapsible=0;dropTarget=0;pointerEvents=0;fillColor=#a0522d;points=[[0,0.5],[1,0.5]];portConstraint=eastwest;top=0;left=0;right=0;bottom=0;fontColor=#ffffff;strokeColor=#6D1F00;" vertex="1" parent="cd6iIWrUwJYSX7RnLv2s-26">
          <mxGeometry y="150" width="250" height="30" as="geometry" />
        </mxCell>
        <mxCell id="cd6iIWrUwJYSX7RnLv2s-40" value="str" style="shape=partialRectangle;overflow=hidden;connectable=0;fillColor=#a0522d;top=0;left=0;bottom=0;right=0;fontColor=#ffffff;strokeColor=#6D1F00;" vertex="1" parent="cd6iIWrUwJYSX7RnLv2s-39">
          <mxGeometry width="30" height="30" as="geometry">
            <mxRectangle width="30" height="30" as="alternateBounds" />
          </mxGeometry>
        </mxCell>
        <mxCell id="cd6iIWrUwJYSX7RnLv2s-41" value="entityType" style="shape=partialRectangle;overflow=hidden;connectable=0;fillColor=#a0522d;top=0;left=0;bottom=0;right=0;align=center;spacingLeft=6;fontColor=#ffffff;strokeColor=#6D1F00;" vertex="1" parent="cd6iIWrUwJYSX7RnLv2s-39">
          <mxGeometry x="30" width="220" height="30" as="geometry">
            <mxRectangle width="220" height="30" as="alternateBounds" />
          </mxGeometry>
        </mxCell>
        <mxCell id="cd6iIWrUwJYSX7RnLv2s-42" value="" style="shape=partialRectangle;collapsible=0;dropTarget=0;pointerEvents=0;fillColor=#a0522d;points=[[0,0.5],[1,0.5]];portConstraint=eastwest;top=0;left=0;right=0;bottom=0;fontColor=#ffffff;strokeColor=#6D1F00;" vertex="1" parent="cd6iIWrUwJYSX7RnLv2s-26">
          <mxGeometry y="180" width="250" height="30" as="geometry" />
        </mxCell>
        <mxCell id="cd6iIWrUwJYSX7RnLv2s-43" value="str" style="shape=partialRectangle;overflow=hidden;connectable=0;fillColor=#a0522d;top=0;left=0;bottom=0;right=0;fontColor=#ffffff;strokeColor=#6D1F00;" vertex="1" parent="cd6iIWrUwJYSX7RnLv2s-42">
          <mxGeometry width="30" height="30" as="geometry">
            <mxRectangle width="30" height="30" as="alternateBounds" />
          </mxGeometry>
        </mxCell>
        <mxCell id="cd6iIWrUwJYSX7RnLv2s-44" value="entityId" style="shape=partialRectangle;overflow=hidden;connectable=0;fillColor=#a0522d;top=0;left=0;bottom=0;right=0;align=center;spacingLeft=6;fontColor=#ffffff;strokeColor=#6D1F00;" vertex="1" parent="cd6iIWrUwJYSX7RnLv2s-42">
          <mxGeometry x="30" width="220" height="30" as="geometry">
            <mxRectangle width="220" height="30" as="alternateBounds" />
          </mxGeometry>
        </mxCell>
        <mxCell id="cd6iIWrUwJYSX7RnLv2s-46" value="" style="edgeStyle=none;orthogonalLoop=1;jettySize=auto;html=1;endArrow=classic;startArrow=classic;endSize=8;startSize=8;rounded=0;curved=1;entryX=0.004;entryY=0.067;entryDx=0;entryDy=0;entryPerimeter=0;exitX=1;exitY=0.5;exitDx=0;exitDy=0;fillColor=#dae8fc;strokeColor=#6c8ebf;" edge="1" parent="1" source="C-vyLk0tnHw3VtMMgP7b-27" target="ztNr5zMi71Uj7PbcgTAJ-31">
          <mxGeometry width="100" relative="1" as="geometry">
            <mxPoint x="380" y="230" as="sourcePoint" />
            <mxPoint x="480" y="230" as="targetPoint" />
            <Array as="points">
              <mxPoint x="370" y="190" />
              <mxPoint x="450" y="160" />
              <mxPoint x="500" y="190" />
            </Array>
          </mxGeometry>
        </mxCell>
        <mxCell id="cd6iIWrUwJYSX7RnLv2s-47" value="&lt;b&gt;1:1&lt;/b&gt;" style="text;html=1;align=center;verticalAlign=middle;resizable=0;points=[];autosize=1;strokeColor=none;fillColor=none;" vertex="1" parent="1">
          <mxGeometry x="420" y="140" width="40" height="30" as="geometry" />
        </mxCell>
        <mxCell id="cd6iIWrUwJYSX7RnLv2s-49" value="&lt;b&gt;1:N&lt;/b&gt;" style="text;html=1;align=center;verticalAlign=middle;resizable=0;points=[];autosize=1;strokeColor=none;fillColor=none;" vertex="1" parent="1">
          <mxGeometry x="175" y="260" width="40" height="30" as="geometry" />
        </mxCell>
        <mxCell id="cd6iIWrUwJYSX7RnLv2s-51" value="&lt;b&gt;1:N&lt;/b&gt;" style="text;html=1;align=center;verticalAlign=middle;resizable=0;points=[];autosize=1;strokeColor=none;fillColor=none;" vertex="1" parent="1">
          <mxGeometry x="420" y="360" width="40" height="30" as="geometry" />
        </mxCell>
        <mxCell id="cd6iIWrUwJYSX7RnLv2s-52" value="" style="edgeStyle=none;orthogonalLoop=1;jettySize=auto;html=1;rounded=0;curved=1;exitX=0.64;exitY=1.1;exitDx=0;exitDy=0;exitPerimeter=0;entryX=0.652;entryY=-0.013;entryDx=0;entryDy=0;entryPerimeter=0;fillColor=#dae8fc;strokeColor=#6c8ebf;" edge="1" parent="1" source="ztNr5zMi71Uj7PbcgTAJ-43" target="ztNr5zMi71Uj7PbcgTAJ-47">
          <mxGeometry width="100" relative="1" as="geometry">
            <mxPoint x="150" y="310" as="sourcePoint" />
            <mxPoint x="250" y="310" as="targetPoint" />
            <Array as="points" />
          </mxGeometry>
        </mxCell>
        <mxCell id="cd6iIWrUwJYSX7RnLv2s-54" value="" style="edgeStyle=none;orthogonalLoop=1;jettySize=auto;html=1;rounded=0;curved=1;exitX=1;exitY=0.5;exitDx=0;exitDy=0;entryX=0.032;entryY=0.008;entryDx=0;entryDy=0;entryPerimeter=0;fillColor=#dae8fc;strokeColor=#6c8ebf;" edge="1" parent="1" source="ztNr5zMi71Uj7PbcgTAJ-43" target="ztNr5zMi71Uj7PbcgTAJ-75">
          <mxGeometry width="100" relative="1" as="geometry">
            <mxPoint x="350" y="310" as="sourcePoint" />
            <mxPoint x="450" y="310" as="targetPoint" />
            <Array as="points" />
          </mxGeometry>
        </mxCell>
        <mxCell id="cd6iIWrUwJYSX7RnLv2s-55" value="" style="edgeStyle=none;orthogonalLoop=1;jettySize=auto;html=1;rounded=0;curved=1;exitX=1.016;exitY=0.053;exitDx=0;exitDy=0;exitPerimeter=0;fillColor=#dae8fc;strokeColor=#6c8ebf;" edge="1" parent="1" source="C-vyLk0tnHw3VtMMgP7b-23" target="cd6iIWrUwJYSX7RnLv2s-4">
          <mxGeometry width="100" relative="1" as="geometry">
            <mxPoint x="420" y="40" as="sourcePoint" />
            <mxPoint x="520" y="40" as="targetPoint" />
            <Array as="points">
              <mxPoint x="700" y="-50" />
            </Array>
          </mxGeometry>
        </mxCell>
        <mxCell id="cd6iIWrUwJYSX7RnLv2s-56" value="&lt;b&gt;1:N&lt;/b&gt;" style="text;html=1;align=center;verticalAlign=middle;resizable=0;points=[];autosize=1;strokeColor=none;fillColor=none;" vertex="1" parent="1">
          <mxGeometry x="640" y="-12" width="40" height="30" as="geometry" />
        </mxCell>
        <mxCell id="cd6iIWrUwJYSX7RnLv2s-58" value="" style="edgeStyle=none;orthogonalLoop=1;jettySize=auto;html=1;rounded=0;curved=1;exitX=0.964;exitY=0.033;exitDx=0;exitDy=0;exitPerimeter=0;entryX=0;entryY=0.095;entryDx=0;entryDy=0;entryPerimeter=0;fillColor=#dae8fc;strokeColor=#6c8ebf;" edge="1" parent="1" source="ztNr5zMi71Uj7PbcgTAJ-43" target="cd6iIWrUwJYSX7RnLv2s-26">
          <mxGeometry width="100" relative="1" as="geometry">
            <mxPoint x="590" y="410" as="sourcePoint" />
            <mxPoint x="690" y="410" as="targetPoint" />
            <Array as="points">
              <mxPoint x="550" y="480" />
              <mxPoint x="980" y="400" />
            </Array>
          </mxGeometry>
        </mxCell>
        <mxCell id="cd6iIWrUwJYSX7RnLv2s-59" value="&lt;b&gt;1:N&lt;/b&gt;" style="text;html=1;align=center;verticalAlign=middle;resizable=0;points=[];autosize=1;strokeColor=none;fillColor=none;" vertex="1" parent="1">
          <mxGeometry x="670" y="418" width="40" height="30" as="geometry" />
        </mxCell>
        <mxCell id="cd6iIWrUwJYSX7RnLv2s-60" value="" style="edgeStyle=none;orthogonalLoop=1;jettySize=auto;html=1;rounded=0;curved=1;exitX=1;exitY=0.75;exitDx=0;exitDy=0;entryX=-0.008;entryY=1.033;entryDx=0;entryDy=0;entryPerimeter=0;fillColor=#d5e8d4;strokeColor=#82b366;" edge="1" parent="1" source="ztNr5zMi71Uj7PbcgTAJ-47" target="ztNr5zMi71Uj7PbcgTAJ-82">
          <mxGeometry width="100" relative="1" as="geometry">
            <mxPoint x="360" y="570" as="sourcePoint" />
            <mxPoint x="460" y="570" as="targetPoint" />
            <Array as="points" />
          </mxGeometry>
        </mxCell>
        <mxCell id="cd6iIWrUwJYSX7RnLv2s-61" value="&lt;b&gt;1;N&lt;/b&gt;" style="text;html=1;align=center;verticalAlign=middle;resizable=0;points=[];autosize=1;strokeColor=none;fillColor=none;" vertex="1" parent="1">
          <mxGeometry x="360" y="538" width="40" height="30" as="geometry" />
        </mxCell>
        <mxCell id="cd6iIWrUwJYSX7RnLv2s-62" value="" style="edgeStyle=none;orthogonalLoop=1;jettySize=auto;html=1;rounded=0;curved=1;exitX=1.008;exitY=0.033;exitDx=0;exitDy=0;exitPerimeter=0;fillColor=#d5e8d4;strokeColor=#82b366;" edge="1" parent="1" source="ztNr5zMi71Uj7PbcgTAJ-57" target="cd6iIWrUwJYSX7RnLv2s-20">
          <mxGeometry width="100" relative="1" as="geometry">
            <mxPoint x="320" y="450" as="sourcePoint" />
            <mxPoint x="420" y="450" as="targetPoint" />
            <Array as="points">
              <mxPoint x="730" y="430" />
            </Array>
          </mxGeometry>
        </mxCell>
        <mxCell id="cd6iIWrUwJYSX7RnLv2s-63" value="&lt;b&gt;1:N&lt;/b&gt;" style="text;html=1;align=center;verticalAlign=middle;resizable=0;points=[];autosize=1;strokeColor=none;fillColor=none;" vertex="1" parent="1">
          <mxGeometry x="370" y="440" width="40" height="30" as="geometry" />
        </mxCell>
        <mxCell id="cd6iIWrUwJYSX7RnLv2s-65" value="" style="edgeStyle=none;orthogonalLoop=1;jettySize=auto;html=1;rounded=0;curved=1;entryX=0.25;entryY=1;entryDx=0;entryDy=0;fillColor=#d5e8d4;strokeColor=#82b366;" edge="1" parent="1" target="cd6iIWrUwJYSX7RnLv2s-26">
          <mxGeometry width="100" relative="1" as="geometry">
            <mxPoint x="270" y="630" as="sourcePoint" />
            <mxPoint x="690" y="780" as="targetPoint" />
            <Array as="points">
              <mxPoint x="660" y="950" />
            </Array>
          </mxGeometry>
        </mxCell>
        <mxCell id="cd6iIWrUwJYSX7RnLv2s-66" value="&lt;b&gt;1:N&lt;/b&gt;" style="text;html=1;align=center;verticalAlign=middle;resizable=0;points=[];autosize=1;strokeColor=none;fillColor=none;" vertex="1" parent="1">
          <mxGeometry x="350" y="700" width="40" height="30" as="geometry" />
        </mxCell>
        <mxCell id="cd6iIWrUwJYSX7RnLv2s-67" value="" style="edgeStyle=none;orthogonalLoop=1;jettySize=auto;html=1;rounded=0;curved=1;exitX=0;exitY=0.5;exitDx=0;exitDy=0;entryX=1;entryY=0.5;entryDx=0;entryDy=0;fillColor=#e51400;strokeColor=#B20000;" edge="1" parent="1" source="cd6iIWrUwJYSX7RnLv2s-11" target="ztNr5zMi71Uj7PbcgTAJ-54">
          <mxGeometry width="100" relative="1" as="geometry">
            <mxPoint x="870" y="170" as="sourcePoint" />
            <mxPoint x="870" y="250" as="targetPoint" />
            <Array as="points">
              <mxPoint x="790" y="410" />
            </Array>
          </mxGeometry>
        </mxCell>
        <mxCell id="cd6iIWrUwJYSX7RnLv2s-68" value="&lt;b&gt;N:1&lt;/b&gt;" style="text;html=1;align=center;verticalAlign=middle;resizable=0;points=[];autosize=1;strokeColor=none;fillColor=none;" vertex="1" parent="1">
          <mxGeometry x="840" y="248" width="40" height="30" as="geometry" />
        </mxCell>
        <mxCell id="cd6iIWrUwJYSX7RnLv2s-69" value="" style="edgeStyle=none;orthogonalLoop=1;jettySize=auto;html=1;rounded=0;curved=1;entryX=0.84;entryY=-0.008;entryDx=0;entryDy=0;entryPerimeter=0;exitX=-0.008;exitY=-0.033;exitDx=0;exitDy=0;exitPerimeter=0;fillColor=#e51400;strokeColor=#B20000;" edge="1" parent="1" source="cd6iIWrUwJYSX7RnLv2s-20" target="ztNr5zMi71Uj7PbcgTAJ-75">
          <mxGeometry width="100" relative="1" as="geometry">
            <mxPoint x="860" y="300" as="sourcePoint" />
            <mxPoint x="960" y="300" as="targetPoint" />
            <Array as="points" />
          </mxGeometry>
        </mxCell>
        <mxCell id="cd6iIWrUwJYSX7RnLv2s-70" value="&lt;b&gt;N:1&lt;/b&gt;" style="text;html=1;align=center;verticalAlign=middle;resizable=0;points=[];autosize=1;strokeColor=none;fillColor=none;" vertex="1" parent="1">
          <mxGeometry x="850" y="308" width="40" height="30" as="geometry" />
        </mxCell>
        <mxCell id="cd6iIWrUwJYSX7RnLv2s-71" value="" style="edgeStyle=none;orthogonalLoop=1;jettySize=auto;html=1;rounded=0;curved=1;entryX=1;entryY=0.25;entryDx=0;entryDy=0;exitX=-0.016;exitY=0.081;exitDx=0;exitDy=0;exitPerimeter=0;fillColor=#e51400;strokeColor=#B20000;" edge="1" parent="1" source="cd6iIWrUwJYSX7RnLv2s-4" target="C-vyLk0tnHw3VtMMgP7b-23">
          <mxGeometry width="100" relative="1" as="geometry">
            <mxPoint x="860" y="20" as="sourcePoint" />
            <mxPoint x="960" y="20" as="targetPoint" />
            <Array as="points">
              <mxPoint x="620" y="-170" />
            </Array>
          </mxGeometry>
        </mxCell>
        <mxCell id="cd6iIWrUwJYSX7RnLv2s-72" value="&lt;b&gt;N:1&lt;/b&gt;" style="text;html=1;align=center;verticalAlign=middle;resizable=0;points=[];autosize=1;strokeColor=none;fillColor=none;" vertex="1" parent="1">
          <mxGeometry x="610" y="-72" width="40" height="30" as="geometry" />
        </mxCell>
        <mxCell id="cd6iIWrUwJYSX7RnLv2s-73" value="" style="edgeStyle=none;orthogonalLoop=1;jettySize=auto;html=1;rounded=0;curved=1;entryX=0.968;entryY=1.167;entryDx=0;entryDy=0;entryPerimeter=0;exitX=-0.008;exitY=0.733;exitDx=0;exitDy=0;exitPerimeter=0;fillColor=#e1d5e7;strokeColor=#9673a6;" edge="1" parent="1" source="ztNr5zMi71Uj7PbcgTAJ-79" target="ztNr5zMi71Uj7PbcgTAJ-43">
          <mxGeometry width="100" relative="1" as="geometry">
            <mxPoint x="440" y="490" as="sourcePoint" />
            <mxPoint x="540" y="490" as="targetPoint" />
            <Array as="points" />
          </mxGeometry>
        </mxCell>
        <mxCell id="cd6iIWrUwJYSX7RnLv2s-74" value="&lt;b&gt;N:1&lt;/b&gt;" style="text;html=1;align=center;verticalAlign=middle;resizable=0;points=[];autosize=1;strokeColor=none;fillColor=none;" vertex="1" parent="1">
          <mxGeometry x="470" y="490" width="40" height="30" as="geometry" />
        </mxCell>
        <mxCell id="cd6iIWrUwJYSX7RnLv2s-75" value="&lt;b&gt;1:N&lt;/b&gt;" style="edgeStyle=none;orthogonalLoop=1;jettySize=auto;html=1;rounded=0;curved=1;entryX=0;entryY=0.5;entryDx=0;entryDy=0;exitX=1.008;exitY=0.767;exitDx=0;exitDy=0;exitPerimeter=0;fillColor=#e1d5e7;strokeColor=#9673a6;" edge="1" parent="1" source="ztNr5zMi71Uj7PbcgTAJ-79" target="cd6iIWrUwJYSX7RnLv2s-26">
          <mxGeometry x="-0.0115" y="14" width="100" relative="1" as="geometry">
            <mxPoint x="790" y="540" as="sourcePoint" />
            <mxPoint x="890" y="540" as="targetPoint" />
            <Array as="points" />
            <mxPoint as="offset" />
          </mxGeometry>
        </mxCell>
        <mxCell id="cd6iIWrUwJYSX7RnLv2s-78" value="&lt;b&gt;N:N&lt;/b&gt;" style="text;html=1;align=center;verticalAlign=middle;resizable=0;points=[];autosize=1;strokeColor=none;fillColor=none;" vertex="1" parent="1">
          <mxGeometry x="800" y="640" width="40" height="30" as="geometry" />
        </mxCell>
      </root>
    </mxGraphModel>
  </diagram>
</mxfile>
